<svg width="200" height="80" viewBox="0 0 200 80" fill="none" xmlns="http://www.w3.org/2000/svg">
<path d="M14.7657 17.5213C15.4857 17.6983 14.3957 21.6529 14.0456 23.7175C13.9542 24.2755 13.8628 24.8335 13.7715 25.3915C13.6287 26.2549 13.4852 27.118 13.3404 27.9805C13.1993 28.8242 13.0612 29.6686 12.9235 30.5134C12.8802 30.7667 12.8367 31.0199 12.7919 31.2809C12.4304 33.5174 12.1105 35.8032 12.9641 37.8422C13.7511 38.9896 14.7362 39.722 15.7248 40.4782C16.2828 40.9736 16.5655 41.2593 16.7886 42.0397C17.2492 43.6516 16.0898 44.7869 15.2714 45.9484C14.7984 46.5469 14.3161 47.1275 13.8313 47.7071C13.1458 48.5642 12.5014 49.472 11.8578 50.3902C10.9249 51.7194 9.96769 52.9778 8.95686 54.1893C8.33947 54.9632 7.76139 55.7815 7.1799 56.6086C6.12551 58.1062 5.04055 59.5183 3.89272 60.8727C3.65286 61.1584 3.41291 61.4443 3.16579 61.7389C2.62845 62.2941 2.5582 62.2586 2.12274 62.2941C0.70178 62.4095 2.20793 58.9783 2.49213 57.2541C2.53026 57.0198 2.56829 56.7856 2.60759 56.5442C2.72868 55.8026 2.85239 55.0618 2.9761 54.3212C3.05731 53.8258 3.13833 53.3305 3.21915 52.8352C3.53274 50.9206 3.84963 49.0078 4.19699 47.1047C4.50253 45.3514 4.58801 44.07 4.06659 42.395C3.34742 41.0242 2.25723 40.2583 1.22787 39.4149C0.60563 38.8417 0.327744 38.603 0.0999236 37.7756C-0.346208 36.1558 0.798615 35.0286 1.61704 33.8669C2.07928 33.285 3.02354 32.1554 3.02354 32.1554L5.2835 29.0699L8.42146 24.9376C8.42146 24.9376 9.79711 23.0934 10.4671 22.1407C13.7272 17.5213 14.0456 17.3443 14.7657 17.5213Z" fill="#42A9C4"/>
<path d="M31.4237 50.567H30.241C30.072 50.567 29.9524 50.5222 29.882 50.4326C29.8116 50.3205 29.7764 50.1188 29.7764 49.8275V27.7771C29.7764 27.4858 29.8116 27.2953 29.882 27.2057C29.9524 27.0936 30.072 27.0376 30.241 27.0376H31.4237C31.5926 27.0376 31.7123 27.0936 31.7827 27.2057C31.8531 27.2953 31.8883 27.4858 31.8883 27.7771V49.8275C31.8883 50.1188 31.8531 50.3205 31.7827 50.4326C31.7123 50.5222 31.5926 50.567 31.4237 50.567Z" fill="#2D5F89"/>
<path d="M52.6327 27.0377H53.8154C53.9844 27.0377 54.1041 27.0937 54.1745 27.2058C54.2449 27.2954 54.2801 27.4859 54.2801 27.7772V49.8276C54.2801 50.5671 54.1393 50.9369 53.8577 50.9369C53.6465 50.9369 53.3508 50.5895 52.9707 49.8949L44.3961 33.794V49.8276C44.3961 50.119 44.3609 50.3206 44.2905 50.4327C44.2201 50.5223 44.1005 50.5671 43.9315 50.5671H42.7488C42.5799 50.5671 42.4602 50.5223 42.3898 50.4327C42.3194 50.3206 42.2842 50.119 42.2842 49.8276V27.7772C42.2842 27.0377 42.432 26.668 42.7277 26.668C42.9389 26.668 43.2275 27.0153 43.5936 27.71L52.1681 43.8108V27.7772C52.1681 27.4859 52.2033 27.2954 52.2737 27.2058C52.3441 27.0937 52.4638 27.0377 52.6327 27.0377Z" fill="#2D5F89"/>
<path d="M75.0264 28.046C75.1531 27.6426 75.2728 27.3737 75.3855 27.2393C75.4981 27.1048 75.667 27.0376 75.8923 27.0376H76.9694C77.2651 27.0376 77.4129 27.1833 77.4129 27.4746C77.4129 27.5642 77.3777 27.7547 77.3073 28.046L70.9292 49.3569C70.7462 50.0068 70.5984 50.4438 70.4857 50.6678C70.3731 50.9143 70.2534 51.0376 70.1267 51.0376C70 51.0376 69.8803 50.9256 69.7677 50.7015C69.6691 50.4774 69.5213 50.0292 69.3241 49.3569L62.9249 28.046C62.8545 27.7547 62.8193 27.5642 62.8193 27.4746C62.8193 27.1833 62.9672 27.0376 63.2628 27.0376H64.4244C64.6497 27.0376 64.8187 27.1048 64.9313 27.2393C65.0439 27.3737 65.1566 27.6426 65.2692 28.046L70.1689 44.7855L75.0264 28.046Z" fill="#2D5F89"/>
<path d="M89.4258 36.6018V35.311H100.239V36.6018H89.4258Z" fill="#D9D9D9" stroke="#2D5F89" stroke-width="2" stroke-linecap="round" stroke-linejoin="round"/>
<path d="M89.4258 40.9045V39.6138H100.239V40.9045H89.4258Z" fill="#D9D9D9" stroke="#2D5F89" stroke-width="2" stroke-linecap="round" stroke-linejoin="round"/>
<path d="M89.4258 45.2068H100.239V43.916H89.4258V45.2068Z" fill="#D9D9D9" stroke="#2D5F89" stroke-width="2" stroke-linecap="round" stroke-linejoin="round"/>
<path d="M84.0195 53.1662H100.239L97.536 48.8637H86.7228V31.6536H97.536L100.239 27.3511H84.0195V53.1662Z" fill="#D9D9D9" stroke="#2D5F89" stroke-width="2" stroke-linecap="round" stroke-linejoin="round"/>
<path d="M119.65 49.7603C119.735 49.9171 119.777 50.0628 119.777 50.1973C119.777 50.4438 119.65 50.567 119.397 50.567H117.919C117.707 50.567 117.552 50.5222 117.454 50.4326C117.355 50.3205 117.236 50.0964 117.095 49.7603L113.462 41.2561L109.809 49.8275C109.668 50.1412 109.548 50.3429 109.45 50.4326C109.365 50.5222 109.224 50.567 109.027 50.567H107.591C107.338 50.567 107.211 50.4438 107.211 50.1973C107.211 50.0852 107.253 49.9396 107.338 49.7603L112.153 38.6342L107.507 27.8443C107.436 27.6875 107.401 27.5418 107.401 27.4073C107.401 27.1608 107.528 27.0376 107.781 27.0376H109.26C109.457 27.0376 109.597 27.0936 109.682 27.2057C109.78 27.2953 109.914 27.5082 110.083 27.8443L113.526 35.9788L116.989 27.7771C117.13 27.4634 117.25 27.2617 117.348 27.172C117.447 27.0824 117.602 27.0376 117.813 27.0376H119.228C119.481 27.0376 119.608 27.1496 119.608 27.3737C119.608 27.4858 119.566 27.6426 119.481 27.8443L114.814 38.567L119.65 49.7603Z" fill="#2D5F89"/>
<path d="M138.031 30.2309H134.061C133.892 30.2309 133.807 30.3541 133.807 30.6006V49.8275C133.807 50.1188 133.772 50.3205 133.702 50.4326C133.631 50.5222 133.512 50.567 133.343 50.567H132.16C131.991 50.567 131.871 50.5222 131.801 50.4326C131.731 50.3205 131.695 50.1188 131.695 49.8275V30.6006C131.695 30.3541 131.611 30.2309 131.442 30.2309H127.471C127.303 30.2309 127.183 30.1861 127.112 30.0964C127.042 29.9844 127.007 29.7827 127.007 29.4914V27.7771C127.007 27.4858 127.042 27.2953 127.112 27.2057C127.183 27.0936 127.303 27.0376 127.471 27.0376H138.031C138.2 27.0376 138.32 27.0936 138.39 27.2057C138.461 27.2953 138.496 27.4858 138.496 27.7771V29.4914C138.496 29.7827 138.461 29.9844 138.39 30.0964C138.32 30.1861 138.2 30.2309 138.031 30.2309Z" fill="#2D5F89"/>
<path d="M156.253 48.1132V49.8275C156.253 50.1188 156.218 50.3205 156.147 50.4326C156.077 50.5222 155.957 50.567 155.788 50.567H147.784C147.615 50.567 147.495 50.5222 147.425 50.4326C147.355 50.3205 147.319 50.1188 147.319 49.8275V27.7771C147.319 27.4858 147.355 27.2953 147.425 27.2057C147.495 27.0936 147.615 27.0376 147.784 27.0376H155.767C155.936 27.0376 156.056 27.0936 156.126 27.2057C156.197 27.2953 156.232 27.4858 156.232 27.7771V29.4914C156.232 29.7827 156.197 29.9844 156.126 30.0964C156.056 30.1861 155.936 30.2309 155.767 30.2309H149.685C149.516 30.2309 149.431 30.3541 149.431 30.6006V36.7519C149.431 37.0208 149.516 37.1552 149.685 37.1552H155.049C155.218 37.1552 155.338 37.2113 155.408 37.3233C155.479 37.4129 155.514 37.6034 155.514 37.8947V39.5754C155.514 40.0684 155.359 40.3149 155.049 40.3149H149.685C149.516 40.3149 149.431 40.4382 149.431 40.6847V47.004C149.431 47.2505 149.516 47.3737 149.685 47.3737H155.788C155.957 47.3737 156.077 47.4297 156.147 47.5418C156.218 47.6314 156.253 47.8219 156.253 48.1132Z" fill="#2D5F89"/>
<path d="M176.955 45.3237C177.11 45.122 177.23 45.0212 177.314 45.0212C177.413 45.0212 177.518 45.1332 177.631 45.3573L178.244 46.7018C178.314 46.8587 178.349 47.0156 178.349 47.1724C178.349 47.3293 178.265 47.531 178.096 47.7775C176.533 49.8839 174.71 50.9371 172.626 50.9371C170.556 51.0044 168.775 49.8615 167.283 47.5086C165.79 45.1556 165.065 42.2873 165.107 38.9035C165.079 35.4749 165.811 32.573 167.304 30.1976C168.796 27.7999 170.612 26.6234 172.752 26.6682C174.766 26.6682 176.554 27.7102 178.117 29.7943C178.258 29.9511 178.328 30.1192 178.328 30.2985C178.328 30.4553 178.286 30.6346 178.201 30.8363L177.589 32.1472C177.476 32.3937 177.364 32.517 177.251 32.517C177.166 32.517 177.047 32.4273 176.892 32.2481C175.597 30.657 174.203 29.8615 172.71 29.8615C171.19 29.8615 169.908 30.713 168.866 32.4161C167.825 34.1192 167.304 36.2593 167.304 38.8363C167.275 41.3237 167.789 43.4413 168.845 45.1892C169.915 46.9371 171.204 47.7887 172.71 47.7439C174.287 47.7439 175.702 46.9371 176.955 45.3237Z" fill="#2D5F89"/>
<path d="M198.717 50.567H197.534C197.365 50.567 197.245 50.5222 197.175 50.4326C197.105 50.3205 197.069 50.1188 197.069 49.8275V40.4494C197.069 40.2029 196.985 40.0796 196.816 40.0796H189.825C189.656 40.0796 189.572 40.2029 189.572 40.4494V49.8275C189.572 50.1188 189.537 50.3205 189.466 50.4326C189.396 50.5222 189.276 50.567 189.107 50.567H187.925C187.756 50.567 187.636 50.5222 187.566 50.4326C187.495 50.3205 187.46 50.1188 187.46 49.8275V27.7771C187.46 27.4858 187.495 27.2953 187.566 27.2057C187.636 27.0936 187.756 27.0376 187.925 27.0376H189.107C189.276 27.0376 189.396 27.0936 189.466 27.2057C189.537 27.2953 189.572 27.4858 189.572 27.7771V36.5166C189.572 36.7855 189.656 36.92 189.825 36.92H196.816C196.985 36.92 197.069 36.7855 197.069 36.5166V27.7771C197.069 27.4858 197.105 27.2953 197.175 27.2057C197.245 27.0936 197.365 27.0376 197.534 27.0376H198.717C198.886 27.0376 199.005 27.0936 199.076 27.2057C199.146 27.2953 199.181 27.4858 199.181 27.7771V49.8275C199.181 50.1188 199.146 50.3205 199.076 50.4326C199.005 50.5222 198.886 50.567 198.717 50.567Z" fill="#2D5F89"/>
</svg>
