<svg width="431" height="431" viewBox="0 0 431 431" fill="none" xmlns="http://www.w3.org/2000/svg">
<rect x="2.87333" y="2.87333" width="425.253" height="425.253" rx="212.627" fill="#42A9C4"/>
<rect x="2.87333" y="2.87333" width="425.253" height="425.253" rx="212.627" stroke="#42A9C4" stroke-width="5.74667"/>
<path d="M268.91 79.3047C267.68 92.1678 265.784 104.441 262.827 117.001C262.054 120.396 261.282 123.791 260.511 127.186C259.304 132.438 258.091 137.689 256.868 142.937C255.675 148.069 254.51 153.207 253.346 158.346C252.979 159.887 252.612 161.428 252.234 163.015C249.18 176.622 246.477 190.529 253.689 202.934C260.338 209.914 268.661 214.37 277.014 218.97C281.729 221.985 281.729 221.985 286.001 228.47C285.724 238.842 280.097 245.184 273.183 252.25C269.186 255.891 265.111 259.423 261.016 262.949C255.224 268.164 249.779 273.687 244.342 279.273C236.459 287.359 228.372 295.016 219.832 302.386C214.616 307.094 209.731 312.073 204.819 317.105C195.91 326.216 186.744 334.807 177.046 343.046C175.019 344.785 172.992 346.524 170.904 348.316C166.364 351.694 166.364 351.694 162.091 351.694C161.772 340.92 162.811 331.521 165.212 321.031C165.534 319.606 165.856 318.181 166.187 316.713C167.21 312.201 168.256 307.695 169.301 303.188C169.987 300.175 170.671 297.162 171.354 294.148C174.004 282.5 176.682 270.863 179.616 259.284C182.198 248.618 182.92 240.821 178.515 230.632C172.438 222.292 163.227 217.633 154.53 212.501C149.273 209.014 149.273 209.014 145 202.528C145.277 192.156 150.904 185.815 157.818 178.748C161.723 175.208 165.708 171.773 169.702 168.336C176.328 162.33 182.547 155.967 188.796 149.564C197.36 140.798 206.012 132.399 215.309 124.424C221.31 118.987 226.931 113.204 232.592 107.408C260.136 79.3047 260.136 79.3047 268.91 79.3047Z" fill="white"/>
</svg>
